<svg width="15" height="21" viewBox="0 0 15 21" fill="none" xmlns="http://www.w3.org/2000/svg">
<path d="M6.71875 20.1094C6.09375 19.1979 5.3776 18.1693 4.57031 17.0234C3.78906 15.8776 3.22917 15.0703 2.89062 14.6016C2.55208 14.1328 2.16146 13.5599 1.71875 12.8828C1.27604 12.1797 0.976562 11.6849 0.820312 11.3984C0.690104 11.112 0.533854 10.7474 0.351562 10.3047C0.195312 9.86198 0.0911458 9.48438 0.0390625 9.17188C0.0130208 8.83333 0 8.44271 0 8C0 5.91667 0.729167 4.14583 2.1875 2.6875C3.64583 1.22917 5.41667 0.5 7.5 0.5C9.58333 0.5 11.3542 1.22917 12.8125 2.6875C14.2708 4.14583 15 5.91667 15 8C15 8.44271 14.974 8.83333 14.9219 9.17188C14.8958 9.48438 14.7917 9.86198 14.6094 10.3047C14.4531 10.7474 14.2969 11.112 14.1406 11.3984C14.0104 11.6849 13.724 12.1797 13.2812 12.8828C12.8385 13.5599 12.4479 14.1328 12.1094 14.6016C11.7708 15.0703 11.1979 15.8776 10.3906 17.0234C9.60938 18.1693 8.90625 19.1979 8.28125 20.1094C8.09896 20.3698 7.83854 20.5 7.5 20.5C7.16146 20.5 6.90104 20.3698 6.71875 20.1094ZM5.27344 10.2266C5.89844 10.8255 6.64062 11.125 7.5 11.125C8.35938 11.125 9.08854 10.8255 9.6875 10.2266C10.3125 9.60156 10.625 8.85938 10.625 8C10.625 7.14062 10.3125 6.41146 9.6875 5.8125C9.08854 5.1875 8.35938 4.875 7.5 4.875C6.64062 4.875 5.89844 5.1875 5.27344 5.8125C4.67448 6.41146 4.375 7.14062 4.375 8C4.375 8.85938 4.67448 9.60156 5.27344 10.2266Z" fill="white"/>
</svg>
