<svg width="25" height="42" viewBox="0 0 25 42" fill="none" xmlns="http://www.w3.org/2000/svg">
<path d="M0.754361 18.9533L19.0476 0.660066C19.4877 0.220022 20.022 0 20.6506 0C21.2793 0 21.8136 0.220022 22.2537 0.660066L24.3281 2.73456C24.7682 3.1746 24.9882 3.70894 24.9882 4.33758C25.0511 4.96621 24.8625 5.50055 24.4224 5.94059L9.80669 20.5563L24.4224 35.1721C24.8625 35.6121 25.0511 36.1465 24.9882 36.7751C24.9882 37.4037 24.7682 37.9381 24.3281 38.3781L22.2537 40.4526C21.8136 40.8927 21.2793 41.1127 20.6506 41.1127C20.022 41.1127 19.4877 40.8927 19.0476 40.4526L0.754361 22.1594C0.251454 21.7193 0 21.185 0 20.5563C0 19.9277 0.251454 19.3934 0.754361 18.9533Z" fill="white"/>
</svg>
