<svg width="21" height="16" viewBox="0 0 21 16" fill="none" xmlns="http://www.w3.org/2000/svg">
<path d="M19.0312 0H1.96875C0.881426 0 0 0.895417 0 2V14C0 15.1046 0.881426 16 1.96875 16H19.0312C20.1186 16 21 15.1046 21 14V2C21 0.895417 20.1186 0 19.0312 0ZM19.0312 2V3.70021C18.1116 4.461 16.6455 5.644 13.5111 8.13729C12.8203 8.68925 11.4521 10.0153 10.5 9.99983C9.54811 10.0155 8.17938 8.68904 7.48892 8.13729C4.35504 5.64438 2.88853 4.46112 1.96875 3.70021V2H19.0312ZM1.96875 14V6.26658C2.90858 7.02704 4.24138 8.09417 6.27285 9.71017C7.16933 10.427 8.73928 12.0096 10.5 12C12.2521 12.0096 13.8021 10.45 14.7268 9.7105C16.7582 8.09454 18.0914 7.02713 19.0312 6.26663V14H1.96875Z" fill="white"/>
</svg>
