<svg width="15" height="16" viewBox="0 0 15 16" fill="none" xmlns="http://www.w3.org/2000/svg">
<g clip-path="url(#clip0)">
<path d="M7.40391 4.40635C5.41641 4.40635 3.81328 6.00947 3.81328 7.99697C3.81328 9.98447 5.41641 11.5876 7.40391 11.5876C9.39141 11.5876 10.9945 9.98447 10.9945 7.99697C10.9945 6.00947 9.39141 4.40635 7.40391 4.40635ZM7.40391 10.3313C6.11953 10.3313 5.06953 9.28447 5.06953 7.99697C5.06953 6.70947 6.11641 5.6626 7.40391 5.6626C8.69141 5.6626 9.73828 6.70947 9.73828 7.99697C9.73828 9.28447 8.68828 10.3313 7.40391 10.3313ZM11.9789 4.25947C11.9789 4.7251 11.6039 5.09697 11.1414 5.09697C10.6758 5.09697 10.3039 4.72197 10.3039 4.25947C10.3039 3.79697 10.6789 3.42197 11.1414 3.42197C11.6039 3.42197 11.9789 3.79697 11.9789 4.25947ZM14.357 5.10947C14.3039 3.9876 14.0477 2.99385 13.2258 2.1751C12.407 1.35635 11.4133 1.1001 10.2914 1.04385C9.13516 0.978223 5.66953 0.978223 4.51328 1.04385C3.39453 1.09697 2.40078 1.35322 1.57891 2.17197C0.757031 2.99072 0.503906 3.98447 0.447656 5.10635C0.382031 6.2626 0.382031 9.72822 0.447656 10.8845C0.500781 12.0063 0.757031 13.0001 1.57891 13.8188C2.40078 14.6376 3.39141 14.8938 4.51328 14.9501C5.66953 15.0157 9.13516 15.0157 10.2914 14.9501C11.4133 14.897 12.407 14.6407 13.2258 13.8188C14.0445 13.0001 14.3008 12.0063 14.357 10.8845C14.4227 9.72822 14.4227 6.26572 14.357 5.10947ZM12.8633 12.1251C12.6195 12.7376 12.1477 13.2095 11.532 13.4563C10.6102 13.822 8.42266 13.7376 7.40391 13.7376C6.38516 13.7376 4.19453 13.8188 3.27578 13.4563C2.66328 13.2126 2.19141 12.7407 1.94453 12.1251C1.57891 11.2032 1.66328 9.01572 1.66328 7.99697C1.66328 6.97822 1.58203 4.7876 1.94453 3.86885C2.18828 3.25635 2.66016 2.78447 3.27578 2.5376C4.19766 2.17197 6.38516 2.25635 7.40391 2.25635C8.42266 2.25635 10.6133 2.1751 11.532 2.5376C12.1445 2.78135 12.6164 3.25322 12.8633 3.86885C13.2289 4.79072 13.1445 6.97822 13.1445 7.99697C13.1445 9.01572 13.2289 11.2063 12.8633 12.1251Z" fill="white"/>
</g>
<defs>
<clipPath id="clip0">
<rect width="14" height="16" fill="white" transform="translate(0.400391)"/>
</clipPath>
</defs>
</svg>
