<svg width="17" height="16" viewBox="0 0 17 16" fill="none" xmlns="http://www.w3.org/2000/svg">
<g clip-path="url(#clip0)">
<path d="M1.07192 0.798351L4.31558 0.0498124C4.66802 -0.0312792 5.02981 0.152736 5.17328 0.483341L6.67036 3.97652C6.80135 4.28217 6.71402 4.64085 6.45516 4.84981L4.5651 6.39679C5.6879 8.78899 7.6497 10.7789 10.0918 11.9235L11.6388 10.0334C11.8509 9.77457 12.2064 9.68724 12.5121 9.81823L16.0053 11.3153C16.339 11.4619 16.523 11.8237 16.4419 12.1761L15.6934 15.4198C15.6154 15.7566 15.316 15.9999 14.9635 15.9999C6.97601 15.9999 0.491801 9.52818 0.491801 1.52817C0.491801 1.17886 0.731958 0.876323 1.07192 0.798351Z" fill="white"/>
</g>
<defs>
<clipPath id="clip0">
<rect width="16" height="16" fill="white" transform="matrix(-1 0 0 1 16.4922 0)"/>
</clipPath>
</defs>
</svg>
