<svg width="21" height="20" viewBox="0 0 21 20" fill="none" xmlns="http://www.w3.org/2000/svg">
<g clip-path="url(#clip0)">
<path d="M20.2188 17.2593L16.3242 13.3723C16.1484 13.1969 15.9102 13.0994 15.6602 13.0994H15.0234C16.1016 11.7232 16.7422 9.9922 16.7422 8.10916C16.7422 3.62963 13.1055 0 8.61719 0C4.12891 0 0.492188 3.62963 0.492188 8.10916C0.492188 12.5887 4.12891 16.2183 8.61719 16.2183C10.5039 16.2183 12.2383 15.5789 13.6172 14.5029V15.1384C13.6172 15.3879 13.7148 15.6257 13.8906 15.8012L17.7852 19.6881C18.1523 20.0546 18.7461 20.0546 19.1094 19.6881L20.2148 18.5848C20.582 18.2183 20.582 17.6257 20.2188 17.2593ZM8.61719 13.0994C5.85547 13.0994 3.61719 10.8694 3.61719 8.10916C3.61719 5.35283 5.85156 3.11891 8.61719 3.11891C11.3789 3.11891 13.6172 5.34893 13.6172 8.10916C13.6172 10.8655 11.3828 13.0994 8.61719 13.0994Z" fill="white"/>
</g>
<defs>
<clipPath id="clip0">
<rect width="20" height="20" fill="white" transform="translate(0.492188)"/>
</clipPath>
</defs>
</svg>
