<svg width="21" height="16" viewBox="0 0 21 16" fill="none" xmlns="http://www.w3.org/2000/svg"><g clip-path="url(#clip0)"><path d="M18.4679 3.98983C18.4804 4.16475 18.4804 4.33971 18.4804 4.51464C18.4804 9.85002 14.4195 15.9976 6.99738 15.9976C4.71077 15.9976 2.58661 15.3354 0.799805 14.1859C1.12469 14.2233 1.43704 14.2358 1.77442 14.2358C3.66115 14.2358 5.398 13.5986 6.78496 12.5115C5.01065 12.474 3.52373 11.312 3.01142 9.7126C3.26134 9.75006 3.51123 9.77506 3.77365 9.77506C4.136 9.77506 4.49838 9.72506 4.83573 9.63764C2.98646 9.26275 1.59946 7.63841 1.59946 5.67668V5.62671C2.13673 5.9266 2.76154 6.11402 3.42373 6.13898C2.33665 5.41425 1.62446 4.17725 1.62446 2.77779C1.62446 2.0281 1.82434 1.34087 2.17423 0.741099C4.16096 3.19014 7.14731 4.78948 10.496 4.96444C10.4335 4.66456 10.396 4.35221 10.396 4.03983C10.396 1.81568 12.1953 0.00390625 14.4319 0.00390625C15.594 0.00390625 16.6435 0.491214 17.3808 1.27841C18.2929 1.10348 19.1675 0.766099 19.9423 0.303791C19.6423 1.24094 19.0051 2.02814 18.168 2.52791C18.9802 2.44048 19.7673 2.21552 20.492 1.90318C19.9423 2.70283 19.2551 3.41502 18.4679 3.98983Z" fill="white"/></g><defs><clipPath id="clip0"><rect width="19.6923" height="16" fill="white" transform="translate(0.799805)"/></clipPath></defs></svg>